<mxfile host="app.diagrams.net" agent="Mozilla/5.0 (Windows NT 10.0; Win64; x64) AppleWebKit/537.36 (KHTML, like Gecko) Chrome/130.0.0.0 Safari/537.36" version="24.8.4">
  <diagram name="第 1 页" id="gOHX9irc7cxHJTSrgnxw">
    <mxGraphModel dx="1961" dy="589" grid="1" gridSize="10" guides="1" tooltips="1" connect="1" arrows="1" fold="1" page="1" pageScale="1" pageWidth="827" pageHeight="1169" math="0" shadow="0">
      <root>
        <mxCell id="0" />
        <mxCell id="1" parent="0" />
        <mxCell id="HYbBCqNV_FvSnEwyPRaY-9" value="" style="rounded=0;whiteSpace=wrap;html=1;" vertex="1" parent="1">
          <mxGeometry x="-170" width="980" height="360" as="geometry" />
        </mxCell>
        <mxCell id="HYbBCqNV_FvSnEwyPRaY-13" style="edgeStyle=orthogonalEdgeStyle;rounded=0;orthogonalLoop=1;jettySize=auto;html=1;exitX=0.5;exitY=0.5;exitDx=0;exitDy=0;exitPerimeter=0;entryX=0;entryY=0.5;entryDx=0;entryDy=0;" edge="1" parent="1" source="HYbBCqNV_FvSnEwyPRaY-1" target="HYbBCqNV_FvSnEwyPRaY-12">
          <mxGeometry relative="1" as="geometry" />
        </mxCell>
        <mxCell id="HYbBCqNV_FvSnEwyPRaY-22" value="Route" style="edgeLabel;html=1;align=center;verticalAlign=middle;resizable=0;points=[];" vertex="1" connectable="0" parent="HYbBCqNV_FvSnEwyPRaY-13">
          <mxGeometry x="0.0185" y="1" relative="1" as="geometry">
            <mxPoint as="offset" />
          </mxGeometry>
        </mxCell>
        <mxCell id="HYbBCqNV_FvSnEwyPRaY-1" value="Client&lt;div&gt;&lt;br&gt;&lt;/div&gt;" style="shape=umlActor;verticalLabelPosition=bottom;verticalAlign=top;html=1;outlineConnect=0;" vertex="1" parent="1">
          <mxGeometry x="-120" y="185" width="30" height="60" as="geometry" />
        </mxCell>
        <mxCell id="HYbBCqNV_FvSnEwyPRaY-7" style="edgeStyle=orthogonalEdgeStyle;rounded=0;orthogonalLoop=1;jettySize=auto;html=1;exitX=1;exitY=0.5;exitDx=0;exitDy=0;entryX=0;entryY=0.5;entryDx=0;entryDy=0;" edge="1" parent="1" source="HYbBCqNV_FvSnEwyPRaY-2" target="HYbBCqNV_FvSnEwyPRaY-5">
          <mxGeometry relative="1" as="geometry" />
        </mxCell>
        <mxCell id="HYbBCqNV_FvSnEwyPRaY-8" style="edgeStyle=orthogonalEdgeStyle;rounded=0;orthogonalLoop=1;jettySize=auto;html=1;exitX=1;exitY=0.5;exitDx=0;exitDy=0;entryX=0;entryY=0.5;entryDx=0;entryDy=0;" edge="1" parent="1" source="HYbBCqNV_FvSnEwyPRaY-2" target="HYbBCqNV_FvSnEwyPRaY-6">
          <mxGeometry relative="1" as="geometry" />
        </mxCell>
        <mxCell id="HYbBCqNV_FvSnEwyPRaY-2" value="NodeJS" style="rounded=1;whiteSpace=wrap;html=1;" vertex="1" parent="1">
          <mxGeometry x="230" y="185" width="120" height="60" as="geometry" />
        </mxCell>
        <mxCell id="HYbBCqNV_FvSnEwyPRaY-5" value="MySQL" style="rounded=1;whiteSpace=wrap;html=1;" vertex="1" parent="1">
          <mxGeometry x="430" y="125" width="120" height="60" as="geometry" />
        </mxCell>
        <mxCell id="HYbBCqNV_FvSnEwyPRaY-19" style="edgeStyle=orthogonalEdgeStyle;rounded=0;orthogonalLoop=1;jettySize=auto;html=1;exitX=1;exitY=0.5;exitDx=0;exitDy=0;entryX=0;entryY=0.5;entryDx=0;entryDy=0;" edge="1" parent="1" source="HYbBCqNV_FvSnEwyPRaY-6" target="HYbBCqNV_FvSnEwyPRaY-18">
          <mxGeometry relative="1" as="geometry" />
        </mxCell>
        <mxCell id="HYbBCqNV_FvSnEwyPRaY-6" value="S3cmd" style="rounded=1;whiteSpace=wrap;html=1;" vertex="1" parent="1">
          <mxGeometry x="430" y="255" width="120" height="60" as="geometry" />
        </mxCell>
        <mxCell id="HYbBCqNV_FvSnEwyPRaY-10" value="&lt;font style=&quot;font-size: 24px;&quot;&gt;Streaming Platform&lt;/font&gt;" style="text;html=1;align=center;verticalAlign=middle;whiteSpace=wrap;rounded=0;" vertex="1" parent="1">
          <mxGeometry x="190" y="41" width="280" height="30" as="geometry" />
        </mxCell>
        <mxCell id="HYbBCqNV_FvSnEwyPRaY-17" style="edgeStyle=orthogonalEdgeStyle;rounded=0;orthogonalLoop=1;jettySize=auto;html=1;exitX=1;exitY=0.5;exitDx=0;exitDy=0;" edge="1" parent="1" source="HYbBCqNV_FvSnEwyPRaY-12" target="HYbBCqNV_FvSnEwyPRaY-2">
          <mxGeometry relative="1" as="geometry" />
        </mxCell>
        <mxCell id="HYbBCqNV_FvSnEwyPRaY-20" value="API" style="edgeLabel;html=1;align=center;verticalAlign=middle;resizable=0;points=[];" vertex="1" connectable="0" parent="HYbBCqNV_FvSnEwyPRaY-17">
          <mxGeometry x="-0.04" y="-1" relative="1" as="geometry">
            <mxPoint y="1" as="offset" />
          </mxGeometry>
        </mxCell>
        <mxCell id="HYbBCqNV_FvSnEwyPRaY-21" value="Restful&lt;br&gt;API" style="edgeLabel;html=1;align=center;verticalAlign=middle;resizable=0;points=[];" vertex="1" connectable="0" parent="HYbBCqNV_FvSnEwyPRaY-17">
          <mxGeometry y="-3" relative="1" as="geometry">
            <mxPoint x="-3" y="-2" as="offset" />
          </mxGeometry>
        </mxCell>
        <mxCell id="HYbBCqNV_FvSnEwyPRaY-12" value="Vue.JS" style="rounded=1;whiteSpace=wrap;html=1;" vertex="1" parent="1">
          <mxGeometry x="30" y="185" width="120" height="60" as="geometry" />
        </mxCell>
        <mxCell id="HYbBCqNV_FvSnEwyPRaY-18" value="Amazon S3" style="rounded=1;whiteSpace=wrap;html=1;" vertex="1" parent="1">
          <mxGeometry x="620" y="255" width="120" height="60" as="geometry" />
        </mxCell>
      </root>
    </mxGraphModel>
  </diagram>
</mxfile>
